<?xml version="1.0" encoding="utf-8"?>
<svg version="1.1" xmlns:xlink="http://www.w3.org/1999/xlink" width="20px" height="22px" xmlns="http://www.w3.org/2000/svg">
  <g transform="matrix(1 0 0 1 -1150 -92 )">
    <path d="M 20 11  C 20 4.917  15.53 0  10 0  C 4.47 0  0 4.917  0 11  C 0 17.083  4.47 22  10 22  C 15.53 22  20 17.083  20 11  Z M 11.41 11  L 15 14.949  L 13.59 16.5  L 10 12.551  L 6.41 16.5  L 5 14.949  L 8.59 11  L 5 7.051  L 6.41 5.5  L 10 9.449  L 13.59 5.5  L 15 7.051  L 11.41 11  Z " fill-rule="nonzero" fill="#f2f2f2" stroke="none" transform="matrix(1 0 0 1 1150 92 )" />
  </g>
</svg>