<?xml version="1.0" encoding="utf-8"?>
<svg version="1.1" xmlns:xlink="http://www.w3.org/1999/xlink" width="13px" height="16px" xmlns="http://www.w3.org/2000/svg">
  <g transform="matrix(1 0 0 1 -196 -453 )">
    <path d="M 13 4.8  L 8.125 0  L 1.625 0  C 0.73125 0  0 0.72  0 1.6  L 0 14.4  C 0 15.28  0.723125 16  1.616875 16  L 11.375 16  C 12.26875 16  13 15.28  13 14.4  L 13 4.8  Z M 10.115625 12.832  L 8.97 13.96  L 7.4425 12.456  C 6.361875 13.024  4.996875 12.88  4.086875 11.984  C 2.97375 10.888  2.97375 9.12  4.086875 8.024  C 5.2 6.928  6.995625 6.928  8.10875 8.024  C 9.01875 8.92  9.173125 10.264  8.588125 11.328  L 10.115625 12.832  Z M 11.78125 5.6  L 7.3125 5.6  L 7.3125 1.2  L 11.78125 5.6  Z " fill-rule="nonzero" fill="#027db4" stroke="none" transform="matrix(1 0 0 1 196 453 )" />
  </g>
</svg>