<?xml version="1.0" encoding="utf-8"?>
<svg version="1.1" xmlns:xlink="http://www.w3.org/1999/xlink" width="103px" height="22px" viewBox="262 267  103 22" xmlns="http://www.w3.org/2000/svg">
  <path d="M 263 269  A 1 1 0 0 1 264 268 L 363 268  A 1 1 0 0 1 364 269 L 364 287  A 1 1 0 0 1 363 288 L 264 288  A 1 1 0 0 1 263 287 L 263 269  Z " fill-rule="nonzero" fill="#ffffff" stroke="none" />
  <path d="M 262.5 269  A 1.5 1.5 0 0 1 264 267.5 L 363 267.5  A 1.5 1.5 0 0 1 364.5 269 L 364.5 287  A 1.5 1.5 0 0 1 363 288.5 L 264 288.5  A 1.5 1.5 0 0 1 262.5 287 L 262.5 269  Z " stroke-width="1" stroke="#aaaaaa" fill="none" stroke-opacity="0.603921568627451" />
</svg>