<?xml version="1.0" encoding="utf-8"?>
<svg version="1.1" xmlns:xlink="http://www.w3.org/1999/xlink" width="103px" height="22px" viewBox="368 267  103 22" xmlns="http://www.w3.org/2000/svg">
  <path d="M 369 269  A 1 1 0 0 1 370 268 L 469 268  A 1 1 0 0 1 470 269 L 470 287  A 1 1 0 0 1 469 288 L 370 288  A 1 1 0 0 1 369 287 L 369 269  Z " fill-rule="nonzero" fill="#eeeeee" stroke="none" />
  <path d="M 368.5 269  A 1.5 1.5 0 0 1 370 267.5 L 469 267.5  A 1.5 1.5 0 0 1 470.5 269 L 470.5 287  A 1.5 1.5 0 0 1 469 288.5 L 370 288.5  A 1.5 1.5 0 0 1 368.5 287 L 368.5 269  Z " stroke-width="1" stroke="#aaaaaa" fill="none" stroke-opacity="0.603921568627451" />
</svg>