<?xml version="1.0" encoding="utf-8"?>
<svg version="1.1" xmlns:xlink="http://www.w3.org/1999/xlink" width="12px" height="12px" viewBox="172 471  12 12" xmlns="http://www.w3.org/2000/svg">
  <path d="M 172.5 473  A 1.5 1.5 0 0 1 174 471.5 L 182 471.5  A 1.5 1.5 0 0 1 183.5 473 L 183.5 481  A 1.5 1.5 0 0 1 182 482.5 L 174 482.5  A 1.5 1.5 0 0 1 172.5 481 L 172.5 473  Z " fill-rule="nonzero" fill="#f0f0f0" stroke="none" />
  <path d="M 172.5 473  A 1.5 1.5 0 0 1 174 471.5 L 182 471.5  A 1.5 1.5 0 0 1 183.5 473 L 183.5 481  A 1.5 1.5 0 0 1 182 482.5 L 174 482.5  A 1.5 1.5 0 0 1 172.5 481 L 172.5 473  Z " stroke-width="1" stroke="#797979" fill="none" />
</svg>