<?xml version="1.0" encoding="utf-8"?>
<svg version="1.1" xmlns:xlink="http://www.w3.org/1999/xlink" width="12px" height="12px" viewBox="330 -456.5  12 12" xmlns="http://www.w3.org/2000/svg">
  <path d="M 336 -456.5  C 339.36 -456.5  342 -453.86  342 -450.5  C 342 -447.14  339.36 -444.5  336 -444.5  C 332.64 -444.5  330 -447.14  330 -450.5  C 330 -453.86  332.64 -456.5  336 -456.5  Z " fill-rule="nonzero" fill="#f0f0f0" stroke="none" />
  <path d="M 336 -456  C 339.08 -456  341.5 -453.58  341.5 -450.5  C 341.5 -447.42  339.08 -445  336 -445  C 332.92 -445  330.5 -447.42  330.5 -450.5  C 330.5 -453.58  332.92 -456  336 -456  Z " stroke-width="1" stroke="#333333" fill="none" />
  <path d="M 336 -447.5  C 334.32 -447.5  333 -448.82  333 -450.5  C 333 -452.18  334.32 -453.5  336 -453.5  C 337.68 -453.5  339 -452.18  339 -450.5  C 339 -448.82  337.68 -447.5  336 -447.5  " fill-rule="nonzero" fill="#333333" stroke="none" />
</svg>