<?xml version="1.0" encoding="utf-8"?>
<svg version="1.1" xmlns:xlink="http://www.w3.org/1999/xlink" width="12px" height="12px" viewBox="267 -456.5  12 12" xmlns="http://www.w3.org/2000/svg">
  <path d="M 273 -456.5  C 276.36 -456.5  279 -453.86  279 -450.5  C 279 -447.14  276.36 -444.5  273 -444.5  C 269.64 -444.5  267 -447.14  267 -450.5  C 267 -453.86  269.64 -456.5  273 -456.5  Z " fill-rule="nonzero" fill="#ffffff" stroke="none" />
  <path d="M 273 -456  C 276.08 -456  278.5 -453.58  278.5 -450.5  C 278.5 -447.42  276.08 -445  273 -445  C 269.92 -445  267.5 -447.42  267.5 -450.5  C 267.5 -453.58  269.92 -456  273 -456  Z " stroke-width="1" stroke="#333333" fill="none" />
  <path d="M 273 -447.5  C 271.32 -447.5  270 -448.82  270 -450.5  C 270 -452.18  271.32 -453.5  273 -453.5  C 274.68 -453.5  276 -452.18  276 -450.5  C 276 -448.82  274.68 -447.5  273 -447.5  " fill-rule="nonzero" fill="#333333" stroke="none" />
</svg>