<?xml version="1.0" encoding="utf-8"?>
<svg version="1.1" xmlns:xlink="http://www.w3.org/1999/xlink" width="12px" height="12px" viewBox="262 201.5  12 12" xmlns="http://www.w3.org/2000/svg">
  <path d="M 268 201.5  C 271.36 201.5  274 204.14  274 207.5  C 274 210.86  271.36 213.5  268 213.5  C 264.64 213.5  262 210.86  262 207.5  C 262 204.14  264.64 201.5  268 201.5  Z " fill-rule="nonzero" fill="#f0f0f0" stroke="none" />
  <path d="M 268 202  C 271.08 202  273.5 204.42  273.5 207.5  C 273.5 210.58  271.08 213  268 213  C 264.92 213  262.5 210.58  262.5 207.5  C 262.5 204.42  264.92 202  268 202  Z " stroke-width="1" stroke="#333333" fill="none" />
  <path d="M 268 210.5  C 266.32 210.5  265 209.18  265 207.5  C 265 205.82  266.32 204.5  268 204.5  C 269.68 204.5  271 205.82  271 207.5  C 271 209.18  269.68 210.5  268 210.5  " fill-rule="nonzero" fill="#333333" stroke="none" />
</svg>