<?xml version="1.0" encoding="utf-8"?>
<svg version="1.1" xmlns:xlink="http://www.w3.org/1999/xlink" width="12px" height="12px" viewBox="317 201.5  12 12" xmlns="http://www.w3.org/2000/svg">
  <path d="M 323 201.5  C 326.36 201.5  329 204.14  329 207.5  C 329 210.86  326.36 213.5  323 213.5  C 319.64 213.5  317 210.86  317 207.5  C 317 204.14  319.64 201.5  323 201.5  Z " fill-rule="nonzero" fill="#f0f0f0" stroke="none" />
  <path d="M 323 202  C 326.08 202  328.5 204.42  328.5 207.5  C 328.5 210.58  326.08 213  323 213  C 319.92 213  317.5 210.58  317.5 207.5  C 317.5 204.42  319.92 202  323 202  Z " stroke-width="1" stroke="#333333" fill="none" />
  <path d="M 323 210.5  C 321.32 210.5  320 209.18  320 207.5  C 320 205.82  321.32 204.5  323 204.5  C 324.68 204.5  326 205.82  326 207.5  C 326 209.18  324.68 210.5  323 210.5  " fill-rule="nonzero" fill="#333333" stroke="none" />
</svg>