<?xml version="1.0" encoding="utf-8"?>
<svg version="1.1" xmlns:xlink="http://www.w3.org/1999/xlink" width="12px" height="12px" viewBox="618 234.5  12 12" xmlns="http://www.w3.org/2000/svg">
  <path d="M 624 234.5  C 627.36 234.5  630 237.14  630 240.5  C 630 243.86  627.36 246.5  624 246.5  C 620.64 246.5  618 243.86  618 240.5  C 618 237.14  620.64 234.5  624 234.5  Z " fill-rule="nonzero" fill="#ffffff" stroke="none" />
  <path d="M 624 235  C 627.08 235  629.5 237.42  629.5 240.5  C 629.5 243.58  627.08 246  624 246  C 620.92 246  618.5 243.58  618.5 240.5  C 618.5 237.42  620.92 235  624 235  Z " stroke-width="1" stroke="#333333" fill="none" />
  <path d="M 624 243.5  C 622.32 243.5  621 242.18  621 240.5  C 621 238.82  622.32 237.5  624 237.5  C 625.68 237.5  627 238.82  627 240.5  C 627 242.18  625.68 243.5  624 243.5  " fill-rule="nonzero" fill="#333333" stroke="none" />
</svg>