<?xml version="1.0" encoding="utf-8"?>
<svg version="1.1" xmlns:xlink="http://www.w3.org/1999/xlink" width="66px" height="27px" xmlns="http://www.w3.org/2000/svg">
  <defs>
    <filter x="100px" y="8px" width="66px" height="27px" filterUnits="userSpaceOnUse" id="filter35">
      <feOffset dx="0" dy="2" in="SourceAlpha" result="shadowOffsetInner" />
      <feGaussianBlur stdDeviation="0" in="shadowOffsetInner" result="shadowGaussian" />
      <feComposite in2="shadowGaussian" operator="atop" in="SourceAlpha" result="shadowComposite" />
      <feColorMatrix type="matrix" values="0 0 0 0 0.776470588235294  0 0 0 0 0.650980392156863  0 0 0 0 0.403921568627451  0 0 0 0.803921568627451 0  " in="shadowComposite" />
    </filter>
    <g id="widget36">
      <path d="M 101 13  A 4 4 0 0 1 105 9 L 161 9  A 4 4 0 0 1 165 13 L 165 28  A 4 4 0 0 1 161 32 L 105 32  A 4 4 0 0 1 101 28 L 101 13  Z " fill-rule="nonzero" fill="#eadeca" stroke="none" />
      <path d="M 100.5 13  A 4.5 4.5 0 0 1 105 8.5 L 161 8.5  A 4.5 4.5 0 0 1 165.5 13 L 165.5 28  A 4.5 4.5 0 0 1 161 32.5 L 105 32.5  A 4.5 4.5 0 0 1 100.5 28 L 100.5 13  Z " stroke-width="1" stroke="#c6a667" fill="none" stroke-opacity="0.803921568627451" />
    </g>
  </defs>
  <g transform="matrix(1 0 0 1 -100 -8 )">
    <use xlink:href="#widget36" filter="url(#filter35)" />
    <use xlink:href="#widget36" />
  </g>
</svg>