<?xml version="1.0" encoding="utf-8"?>
<svg version="1.1" xmlns:xlink="http://www.w3.org/1999/xlink" width="12px" height="12px" viewBox="172 386  12 12" xmlns="http://www.w3.org/2000/svg">
  <path d="M 172.5 388  A 1.5 1.5 0 0 1 174 386.5 L 182 386.5  A 1.5 1.5 0 0 1 183.5 388 L 183.5 396  A 1.5 1.5 0 0 1 182 397.5 L 174 397.5  A 1.5 1.5 0 0 1 172.5 396 L 172.5 388  Z " fill-rule="nonzero" fill="#ffffff" stroke="none" />
  <path d="M 172.5 388  A 1.5 1.5 0 0 1 174 386.5 L 182 386.5  A 1.5 1.5 0 0 1 183.5 388 L 183.5 396  A 1.5 1.5 0 0 1 182 397.5 L 174 397.5  A 1.5 1.5 0 0 1 172.5 396 L 172.5 388  Z " stroke-width="1" stroke="#797979" fill="none" />
  <path d="M 174.571428571429 392  L 177.142857142857 394.571428571429  " stroke-width="2.57142857142857" stroke="#797979" fill="none" />
  <path d="M 177.142857142857 394.571428571429  L 181.428571428571 388.571428571429  " stroke-width="2.57142857142857" stroke="#797979" fill="none" />
</svg>