<?xml version="1.0" encoding="utf-8"?>
<svg version="1.1" xmlns:xlink="http://www.w3.org/1999/xlink" width="12px" height="12px" viewBox="172 471  12 12" xmlns="http://www.w3.org/2000/svg">
  <path d="M 178 471  C 181.36 471  184 473.64  184 477  C 184 480.36  181.36 483  178 483  C 174.64 483  172 480.36  172 477  C 172 473.64  174.64 471  178 471  Z " fill-rule="nonzero" fill="#ffffff" stroke="none" />
  <path d="M 178 471.5  C 181.08 471.5  183.5 473.92  183.5 477  C 183.5 480.08  181.08 482.5  178 482.5  C 174.92 482.5  172.5 480.08  172.5 477  C 172.5 473.92  174.92 471.5  178 471.5  Z " stroke-width="1" stroke="#797979" fill="none" />
  <path d="M 178 480  C 176.32 480  175 478.68  175 477  C 175 475.32  176.32 474  178 474  C 179.68 474  181 475.32  181 477  C 181 478.68  179.68 480  178 480  " fill-rule="nonzero" fill="#797979" stroke="none" />
</svg>