<?xml version="1.0" encoding="utf-8"?>
<svg version="1.1" xmlns:xlink="http://www.w3.org/1999/xlink" width="12px" height="12px" viewBox="781 318.5  12 12" xmlns="http://www.w3.org/2000/svg">
  <path d="M 787 318.5  C 790.36 318.5  793 321.14  793 324.5  C 793 327.86  790.36 330.5  787 330.5  C 783.64 330.5  781 327.86  781 324.5  C 781 321.14  783.64 318.5  787 318.5  Z " fill-rule="nonzero" fill="#f0f0f0" stroke="none" />
  <path d="M 787 319  C 790.08 319  792.5 321.42  792.5 324.5  C 792.5 327.58  790.08 330  787 330  C 783.92 330  781.5 327.58  781.5 324.5  C 781.5 321.42  783.92 319  787 319  Z " stroke-width="1" stroke="#333333" fill="none" />
  <path d="M 787 327.5  C 785.32 327.5  784 326.18  784 324.5  C 784 322.82  785.32 321.5  787 321.5  C 788.68 321.5  790 322.82  790 324.5  C 790 326.18  788.68 327.5  787 327.5  " fill-rule="nonzero" fill="#333333" stroke="none" />
</svg>