<?xml version="1.0" encoding="utf-8"?>
<svg version="1.1" xmlns:xlink="http://www.w3.org/1999/xlink" width="12px" height="12px" viewBox="723 318.5  12 12" xmlns="http://www.w3.org/2000/svg">
  <path d="M 729 318.5  C 732.36 318.5  735 321.14  735 324.5  C 735 327.86  732.36 330.5  729 330.5  C 725.64 330.5  723 327.86  723 324.5  C 723 321.14  725.64 318.5  729 318.5  Z " fill-rule="nonzero" fill="#ffffff" stroke="none" />
  <path d="M 729 319  C 732.08 319  734.5 321.42  734.5 324.5  C 734.5 327.58  732.08 330  729 330  C 725.92 330  723.5 327.58  723.5 324.5  C 723.5 321.42  725.92 319  729 319  Z " stroke-width="1" stroke="#333333" fill="none" />
  <path d="M 729 327.5  C 727.32 327.5  726 326.18  726 324.5  C 726 322.82  727.32 321.5  729 321.5  C 730.68 321.5  732 322.82  732 324.5  C 732 326.18  730.68 327.5  729 327.5  " fill-rule="nonzero" fill="#333333" stroke="none" />
</svg>