<?xml version="1.0" encoding="utf-8"?>
<svg version="1.1" xmlns:xlink="http://www.w3.org/1999/xlink" width="12px" height="12px" viewBox="328 137.5  12 12" xmlns="http://www.w3.org/2000/svg">
  <path d="M 334 137.5  C 337.36 137.5  340 140.14  340 143.5  C 340 146.86  337.36 149.5  334 149.5  C 330.64 149.5  328 146.86  328 143.5  C 328 140.14  330.64 137.5  334 137.5  Z " fill-rule="nonzero" fill="#ffffff" stroke="none" />
  <path d="M 334 138  C 337.08 138  339.5 140.42  339.5 143.5  C 339.5 146.58  337.08 149  334 149  C 330.92 149  328.5 146.58  328.5 143.5  C 328.5 140.42  330.92 138  334 138  Z " stroke-width="1" stroke="#333333" fill="none" />
  <path d="M 334 146.5  C 332.32 146.5  331 145.18  331 143.5  C 331 141.82  332.32 140.5  334 140.5  C 335.68 140.5  337 141.82  337 143.5  C 337 145.18  335.68 146.5  334 146.5  " fill-rule="nonzero" fill="#333333" stroke="none" />
</svg>