<?xml version="1.0" encoding="utf-8"?>
<svg version="1.1" xmlns:xlink="http://www.w3.org/1999/xlink" width="12px" height="12px" viewBox="1108 473.5  12 12" xmlns="http://www.w3.org/2000/svg">
  <path d="M 1114 473.5  C 1117.36 473.5  1120 476.14  1120 479.5  C 1120 482.86  1117.36 485.5  1114 485.5  C 1110.64 485.5  1108 482.86  1108 479.5  C 1108 476.14  1110.64 473.5  1114 473.5  Z " fill-rule="nonzero" fill="#ffffff" stroke="none" />
  <path d="M 1114 474  C 1117.08 474  1119.5 476.42  1119.5 479.5  C 1119.5 482.58  1117.08 485  1114 485  C 1110.92 485  1108.5 482.58  1108.5 479.5  C 1108.5 476.42  1110.92 474  1114 474  Z " stroke-width="1" stroke="#333333" fill="none" />
  <path d="M 1114 482.5  C 1112.32 482.5  1111 481.18  1111 479.5  C 1111 477.82  1112.32 476.5  1114 476.5  C 1115.68 476.5  1117 477.82  1117 479.5  C 1117 481.18  1115.68 482.5  1114 482.5  " fill-rule="nonzero" fill="#333333" stroke="none" />
</svg>