<?xml version="1.0" encoding="utf-8"?>
<svg version="1.1" xmlns:xlink="http://www.w3.org/1999/xlink" width="12px" height="12px" viewBox="695 403.5  12 12" xmlns="http://www.w3.org/2000/svg">
  <path d="M 701 403.5  C 704.36 403.5  707 406.14  707 409.5  C 707 412.86  704.36 415.5  701 415.5  C 697.64 415.5  695 412.86  695 409.5  C 695 406.14  697.64 403.5  701 403.5  Z " fill-rule="nonzero" fill="#ffffff" stroke="none" />
  <path d="M 701 404  C 704.08 404  706.5 406.42  706.5 409.5  C 706.5 412.58  704.08 415  701 415  C 697.92 415  695.5 412.58  695.5 409.5  C 695.5 406.42  697.92 404  701 404  Z " stroke-width="1" stroke="#333333" fill="none" />
  <path d="M 701 412.5  C 699.32 412.5  698 411.18  698 409.5  C 698 407.82  699.32 406.5  701 406.5  C 702.68 406.5  704 407.82  704 409.5  C 704 411.18  702.68 412.5  701 412.5  " fill-rule="nonzero" fill="#333333" stroke="none" />
</svg>