<?xml version="1.0" encoding="utf-8"?>
<svg version="1.1" xmlns:xlink="http://www.w3.org/1999/xlink" width="12px" height="12px" viewBox="610 353.5  12 12" xmlns="http://www.w3.org/2000/svg">
  <path d="M 616 353.5  C 619.36 353.5  622 356.14  622 359.5  C 622 362.86  619.36 365.5  616 365.5  C 612.64 365.5  610 362.86  610 359.5  C 610 356.14  612.64 353.5  616 353.5  Z " fill-rule="nonzero" fill="#ffffff" stroke="none" />
  <path d="M 616 354  C 619.08 354  621.5 356.42  621.5 359.5  C 621.5 362.58  619.08 365  616 365  C 612.92 365  610.5 362.58  610.5 359.5  C 610.5 356.42  612.92 354  616 354  Z " stroke-width="1" stroke="#333333" fill="none" />
  <path d="M 616 362.5  C 614.32 362.5  613 361.18  613 359.5  C 613 357.82  614.32 356.5  616 356.5  C 617.68 356.5  619 357.82  619 359.5  C 619 361.18  617.68 362.5  616 362.5  " fill-rule="nonzero" fill="#333333" stroke="none" />
</svg>